<svg width="30" height="40" viewBox="0 0 30 40" fill="none" xmlns="http://www.w3.org/2000/svg">
<path d="M23.5026 37.9303H6.29584C5.67373 37.9322 5.05872 37.7817 4.49354 37.4891C3.92837 37.1965 3.42661 36.7689 3.02314 36.2361C2.61967 35.7032 2.32418 35.0779 2.1572 34.4035C1.99022 33.7292 1.95577 33.022 2.05623 32.3311L4.55742 13.867C4.65648 13.1883 4.96705 12.5715 5.4335 12.1271C5.89994 11.6827 6.49178 11.4397 7.10296 11.4417H22.6955C23.3067 11.4397 23.8985 11.6827 24.365 12.1271C24.8314 12.5715 25.142 13.1883 25.241 13.867L27.7422 32.3311C27.8427 33.022 27.8082 33.7292 27.6413 34.4035C27.4743 35.0779 27.1788 35.7032 26.7753 36.2361C26.3718 36.7689 25.8701 37.1965 25.3049 37.4891C24.7397 37.7817 24.1247 37.9322 23.5026 37.9303V37.9303Z" stroke="#F9F9F9" stroke-width="3" stroke-linecap="round" stroke-linejoin="round"/>
<path d="M9.75391 11.4417V7.98838C9.75391 6.40016 10.3146 4.87699 11.3126 3.75395C12.3106 2.63092 13.6642 2 15.0756 2C16.487 2 17.8405 2.63092 18.8385 3.75395C19.8365 4.87699 20.3972 6.40016 20.3972 7.98838V11.4217" stroke="#F9F9F9" stroke-width="3" stroke-linecap="round" stroke-linejoin="round"/>
</svg>
