<svg width="21" height="21" viewBox="0 0 21 21" fill="none" xmlns="http://www.w3.org/2000/svg">
<path d="M12.1229 16.3996C10.3121 15.7621 8.66733 14.7265 7.30981 13.369C5.95229 12.0116 4.91657 10.367 4.27895 8.55633C5.30031 8.5706 6.29307 8.21903 7.07777 7.56516C7.86248 6.9113 8.38734 5.99829 8.55749 4.99119L3.56586 0C2.55868 0.170128 1.64559 0.694948 0.991674 1.47958C0.337753 2.26422 -0.0138521 3.2569 0.000417893 4.27817C0.000417893 8.62762 1.72838 12.7989 4.80417 15.8745C7.87997 18.95 12.0516 20.6778 16.4015 20.6778C17.4228 20.6921 18.4156 20.3405 19.2003 19.6866C19.985 19.0328 20.5099 18.1198 20.68 17.1127L15.6884 12.1215C14.6812 12.2916 13.7681 12.8164 13.1142 13.6011C12.4603 14.3857 12.1087 15.3784 12.1229 16.3996Z" fill="#F9F9F9"/>
</svg>
