<svg width="85" height="42" viewBox="0 0 85 42" fill="none" xmlns="http://www.w3.org/2000/svg">
<path d="M30.3341 33.8477L34.3545 10.3565H40.7851L36.7617 33.8477H30.3341ZM59.9935 10.8629C58.7197 10.3869 56.7231 9.87622 54.2303 9.87622C47.8763 9.87622 43.4004 13.0622 43.3625 17.6286C43.3264 21.0042 46.5578 22.8872 48.9967 24.0109C51.4999 25.1623 52.3412 25.8966 52.3294 26.9249C52.3136 28.4994 50.3305 29.2188 48.4823 29.2188C45.9086 29.2188 44.5412 28.8627 42.4293 27.9857L41.6007 27.6125L40.6982 32.8712C42.2001 33.5269 44.9776 34.095 47.8612 34.1244C54.6208 34.1244 59.0087 30.9749 59.0588 26.0985C59.0828 23.4263 57.3697 21.3926 53.6597 19.716C51.4121 18.6294 50.0356 17.9041 50.0502 16.8038C50.0502 15.8274 51.2153 14.7831 53.7327 14.7831C55.8356 14.7507 57.359 15.2073 58.5458 15.6831L59.1219 15.9543L59.9935 10.8629ZM76.5411 10.3561H71.5721C70.0328 10.3561 68.8808 10.7745 68.2049 12.3042L58.655 33.8322H65.4074C65.4074 33.8322 66.5113 30.9374 66.761 30.302C67.4992 30.302 74.0587 30.3121 74.9966 30.3121C75.189 31.1345 75.7788 33.8322 75.7788 33.8322H81.7458L76.5411 10.3554V10.3561ZM68.6574 25.5253C69.1891 24.1718 71.2195 18.9585 71.2195 18.9585C71.1814 19.0212 71.7472 17.5985 72.072 16.7165L72.5065 18.7419C72.5065 18.7419 73.738 24.3494 73.9953 25.5253H68.6574ZM24.8751 10.3561L18.5795 26.3761L17.9086 23.1205C16.7366 19.3677 13.0851 15.3019 9.00293 13.2663L14.7593 33.8103L21.563 33.8027L31.6866 10.3559H24.8751" fill="white"/>
<path d="M12.706 10.3552H2.33695L2.25488 10.844C10.3218 12.7885 15.6595 17.4875 17.8758 23.1332L15.621 12.338C15.2317 10.8506 14.1029 10.4067 12.7062 10.3547" fill="#F2AE14"/>
</svg>
