<svg width="31" height="31" viewBox="0 0 31 31" fill="none" xmlns="http://www.w3.org/2000/svg">
<g clip-path="url(#clip0_48_106)">
<path d="M30.8357 22.63C30.7981 22.5491 30.7631 22.4819 30.7306 22.4282C30.1928 21.4595 29.165 20.2705 27.6478 18.8609L27.6157 18.8286L27.5997 18.8128L27.5835 18.7965H27.5672C26.8786 18.1401 26.4426 17.6988 26.26 17.4728C25.9259 17.0424 25.851 16.6067 26.0336 16.1652C26.1626 15.8317 26.6472 15.1273 27.4863 14.0511C27.9276 13.4807 28.2772 13.0236 28.5353 12.6792C30.397 10.2042 31.2041 8.62269 30.9565 7.93395L30.8603 7.77301C30.7957 7.67611 30.6289 7.58747 30.3602 7.50663C30.0909 7.42595 29.7467 7.41261 29.3269 7.46637L24.6786 7.49848C24.6033 7.4718 24.4958 7.47429 24.3557 7.50663C24.2158 7.53896 24.1458 7.55519 24.1458 7.55519L24.0649 7.59561L24.0007 7.64417C23.9468 7.67628 23.8877 7.73276 23.823 7.81348C23.7588 7.89393 23.705 7.98834 23.662 8.09592C23.156 9.39792 22.5806 10.6084 21.9348 11.7274C21.5366 12.3947 21.171 12.973 20.8371 13.4626C20.5036 13.9521 20.2238 14.3127 19.998 14.5438C19.7719 14.7752 19.5678 14.9606 19.3845 15.1006C19.2015 15.2407 19.0618 15.2999 18.9651 15.2782C18.8681 15.2566 18.7768 15.2351 18.6904 15.2136C18.5399 15.1167 18.4188 14.985 18.3275 14.8182C18.2358 14.6514 18.174 14.4415 18.1418 14.1886C18.1097 13.9356 18.0907 13.718 18.0852 13.535C18.0802 13.3522 18.0825 13.0937 18.0934 12.7601C18.1046 12.4264 18.1097 12.2006 18.1097 12.0822C18.1097 11.6733 18.1176 11.2295 18.1336 10.7506C18.1499 10.2718 18.1631 9.89241 18.1741 9.61291C18.1851 9.33313 18.1902 9.03713 18.1902 8.72507C18.1902 8.41301 18.1712 8.16828 18.1336 7.99066C18.0965 7.81326 18.0396 7.64106 17.9646 7.47412C17.8891 7.30735 17.7787 7.17834 17.6337 7.08676C17.4885 6.99529 17.3079 6.9227 17.093 6.86877C16.5227 6.73971 15.7964 6.66989 14.9139 6.65903C12.9126 6.63755 11.6266 6.76679 11.0563 7.04656C10.8304 7.16477 10.6259 7.32629 10.4431 7.53059C10.2493 7.76741 10.2223 7.89664 10.3622 7.9179C11.0079 8.01463 11.465 8.24601 11.734 8.61183L11.831 8.80568C11.9064 8.94554 11.9817 9.19316 12.0571 9.54818C12.1323 9.9032 12.1809 10.2959 12.2022 10.7261C12.2559 11.5118 12.2559 12.1843 12.2022 12.7437C12.1484 13.3034 12.0975 13.7391 12.0489 14.0512C12.0004 14.3632 11.9278 14.6161 11.831 14.8097C11.734 15.0034 11.6695 15.1218 11.6372 15.1647C11.6049 15.2077 11.578 15.2348 11.5566 15.2454C11.4168 15.299 11.2713 15.3263 11.1208 15.3263C10.97 15.3263 10.7872 15.2509 10.572 15.1002C10.3569 14.9495 10.1337 14.7424 9.90227 14.4788C9.67089 14.215 9.40993 13.8465 9.1193 13.3731C8.82889 12.8997 8.52758 12.3402 8.21552 11.6946L7.95733 11.2264C7.79593 10.9252 7.57546 10.4866 7.29568 9.91106C7.01573 9.33528 6.76829 8.77832 6.55318 8.2403C6.4672 8.01434 6.33802 7.84232 6.16588 7.72394L6.08509 7.67537C6.03139 7.63241 5.94518 7.58679 5.82691 7.53817C5.70847 7.48961 5.58489 7.45478 5.45566 7.43336L1.03319 7.46547C0.581266 7.46547 0.274634 7.56785 0.113178 7.77233L0.0485613 7.86905C0.0162813 7.92293 0 8.00897 0 8.12741C0 8.24579 0.03228 8.39107 0.0968966 8.5631C0.742497 10.0804 1.44457 11.5438 2.20312 12.9534C2.96168 14.3629 3.62084 15.4984 4.18023 16.3587C4.73973 17.2196 5.31003 18.0322 5.89113 18.7959C6.47223 19.56 6.85687 20.0496 7.04507 20.2647C7.23349 20.4802 7.38149 20.6413 7.48908 20.7489L7.89266 21.1362C8.1509 21.3945 8.53012 21.7038 9.03049 22.0642C9.53097 22.4248 10.085 22.7799 10.693 23.1299C11.3011 23.4793 12.0084 23.7644 12.8156 23.985C13.6226 24.2057 14.408 24.2943 15.1721 24.2516H17.0282C17.4047 24.2191 17.6899 24.1007 17.8837 23.8964L17.948 23.8155C17.9912 23.7513 18.0316 23.6515 18.0689 23.5172C18.1067 23.3827 18.1254 23.2346 18.1254 23.0734C18.1144 22.6108 18.1496 22.1939 18.2301 21.8227C18.3106 21.4516 18.4023 21.1718 18.5048 20.9834C18.6073 20.7951 18.723 20.6363 18.8517 20.5075C18.9807 20.3784 19.0726 20.3002 19.1266 20.2733C19.1801 20.2463 19.2229 20.2279 19.2552 20.2169C19.5135 20.1308 19.8174 20.2141 20.1674 20.4672C20.5172 20.7201 20.8453 21.0323 21.1521 21.4034C21.4588 21.7748 21.8273 22.1915 22.2576 22.6541C22.6882 23.1169 23.0647 23.4609 23.3874 23.6872L23.7101 23.8809C23.9256 24.0101 24.2054 24.1285 24.5498 24.2361C24.8935 24.3436 25.1947 24.3705 25.4534 24.3168L29.5852 24.2523C29.9938 24.2523 30.3118 24.1846 30.5374 24.0504C30.7634 23.9159 30.8977 23.7677 30.941 23.6065C30.9842 23.4452 30.9865 23.2622 30.9492 23.0575C30.9109 22.8534 30.8732 22.7106 30.8357 22.63Z" fill="white"/>
</g>
<defs>
<clipPath id="clip0_48_106">
<rect width="31" height="31" fill="white"/>
</clipPath>
</defs>
</svg>
