<svg width="54" height="68" viewBox="0 0 54 68" fill="none" xmlns="http://www.w3.org/2000/svg">
<path d="M15.5 21H1L9.5 47.5H15.5V21Z" fill="white"/>
<circle cx="34" cy="34" r="18" fill="white"/>
<circle cx="33.5" cy="33.5" r="6.5" fill="#391556"/>
<path d="M10.4453 65H9.0625V61.0039C9.0625 60.5078 8.96875 60.1387 8.78125 59.8965C8.59375 59.6504 8.30078 59.5273 7.90234 59.5273C7.37109 59.5273 6.98047 59.7012 6.73047 60.0488C6.48438 60.3926 6.36133 60.9668 6.36133 61.7715V65H4.98438V58.5195H6.0625L6.25586 59.3691H6.32617C6.50586 59.0605 6.76562 58.8223 7.10547 58.6543C7.44922 58.4863 7.82617 58.4023 8.23633 58.4023C9.23242 58.4023 9.89258 58.7422 10.2168 59.4219H10.3105C10.502 59.1016 10.7715 58.8516 11.1191 58.6719C11.4668 58.4922 11.8652 58.4023 12.3145 58.4023C13.0879 58.4023 13.6504 58.5977 14.002 58.9883C14.3574 59.3789 14.5352 59.9746 14.5352 60.7754V65H13.1582V61.0039C13.1582 60.5078 13.0625 60.1387 12.8711 59.8965C12.6836 59.6504 12.3906 59.5273 11.9922 59.5273C11.457 59.5273 11.0645 59.6953 10.8145 60.0312C10.5684 60.3633 10.4453 60.875 10.4453 61.5664V65ZM24.2451 61.748C24.2451 62.8066 23.9736 63.6328 23.4306 64.2266C22.8877 64.8203 22.1318 65.1172 21.163 65.1172C20.5576 65.1172 20.0224 64.9805 19.5576 64.707C19.0927 64.4336 18.7353 64.041 18.4853 63.5293C18.2353 63.0176 18.1103 62.4238 18.1103 61.748C18.1103 60.6973 18.3798 59.877 18.9189 59.2871C19.458 58.6973 20.2177 58.4023 21.1982 58.4023C22.1357 58.4023 22.8779 58.7051 23.4248 59.3105C23.9716 59.9121 24.2451 60.7246 24.2451 61.748ZM19.5283 61.748C19.5283 63.2441 20.081 63.9922 21.1865 63.9922C22.2802 63.9922 22.8271 63.2441 22.8271 61.748C22.8271 60.2676 22.2763 59.5273 21.1748 59.5273C20.5966 59.5273 20.1767 59.7188 19.915 60.1016C19.6572 60.4844 19.5283 61.0332 19.5283 61.748ZM33.5741 65H32.1913V61.0156C32.1913 60.5156 32.0898 60.1426 31.8866 59.8965C31.6874 59.6504 31.3691 59.5273 30.9316 59.5273C30.3495 59.5273 29.9237 59.6992 29.6542 60.043C29.3847 60.3867 29.2499 60.9629 29.2499 61.7715V65H27.873V58.5195H28.9511L29.1445 59.3691H29.2148C29.4101 59.0605 29.6874 58.8223 30.0468 58.6543C30.4062 58.4863 30.8046 58.4023 31.2421 58.4023C32.7968 58.4023 33.5741 59.1934 33.5741 60.7754V65ZM40.3602 65.1172C39.3524 65.1172 38.5634 64.8242 37.993 64.2383C37.4266 63.6484 37.1434 62.8379 37.1434 61.8066C37.1434 60.748 37.4071 59.916 37.9345 59.3105C38.4618 58.7051 39.1864 58.4023 40.1083 58.4023C40.9637 58.4023 41.6395 58.6621 42.1356 59.1816C42.6317 59.7012 42.8798 60.416 42.8798 61.3262V62.0703H38.5614C38.5809 62.6992 38.7509 63.1836 39.0712 63.5234C39.3915 63.8594 39.8427 64.0273 40.4247 64.0273C40.8075 64.0273 41.163 63.9922 41.4911 63.9219C41.8231 63.8477 42.1786 63.7266 42.5575 63.5586V64.6777C42.2216 64.8379 41.8817 64.9512 41.538 65.0176C41.1942 65.084 40.8016 65.1172 40.3602 65.1172ZM40.1083 59.4453C39.6708 59.4453 39.3192 59.584 39.0536 59.8613C38.7919 60.1387 38.6356 60.543 38.5848 61.0742H41.5262C41.5184 60.5391 41.3895 60.1348 41.1395 59.8613C40.8895 59.584 40.5458 59.4453 40.1083 59.4453ZM45.4998 58.5195H46.9998L48.3182 62.1934C48.5174 62.7168 48.6502 63.209 48.7166 63.6699H48.7635C48.7987 63.4551 48.8631 63.1953 48.9569 62.8906C49.0506 62.582 49.5467 61.125 50.4452 58.5195H51.9334L49.162 65.8613C48.658 67.209 47.8182 67.8828 46.6424 67.8828C46.3377 67.8828 46.0409 67.8496 45.7518 67.7832V66.6934C45.9588 66.7402 46.1952 66.7637 46.4608 66.7637C47.1248 66.7637 47.5916 66.3789 47.8612 65.6094L48.1014 65L45.4998 58.5195Z" fill="white"/>
</svg>
