<svg width="68" height="70" viewBox="0 0 68 70" fill="none" xmlns="http://www.w3.org/2000/svg">
<path d="M7.18555 15.0526V9.15527H59.1949V68H7.18555V63.193" stroke="#ED2A74" stroke-width="2" stroke-linecap="round" stroke-linejoin="round"/>
<path d="M7.18555 28.8172V23.1074" stroke="#ED2A74" stroke-width="2" stroke-linecap="round" stroke-linejoin="round"/>
<path d="M7.18555 41.3857V36.8718" stroke="#ED2A74" stroke-width="2" stroke-linecap="round" stroke-linejoin="round"/>
<path d="M7.18555 55.1382V49.4402" stroke="#ED2A74" stroke-width="2" stroke-linecap="round" stroke-linejoin="round"/>
<path d="M10.2457 15.0527H3V23.1074H10.2457V15.0527Z" stroke="#ED2A74" stroke-width="2" stroke-linecap="round" stroke-linejoin="round"/>
<path d="M10.2457 28.8171H3V36.8718H10.2457V28.8171Z" stroke="#ED2A74" stroke-width="2" stroke-linecap="round" stroke-linejoin="round"/>
<path d="M10.2457 41.3857H3V49.4404H10.2457V41.3857Z" stroke="#ED2A74" stroke-width="2" stroke-linecap="round" stroke-linejoin="round"/>
<path d="M10.2457 55.1384H3V63.1931H10.2457V55.1384Z" stroke="#ED2A74" stroke-width="2" stroke-linecap="round" stroke-linejoin="round"/>
<path d="M7.18555 9.1553L13.4346 3H65.7371L59.1949 9.1553" stroke="#ED2A74" stroke-width="2" stroke-linecap="round" stroke-linejoin="round"/>
<path d="M65.7373 7.73665V3" stroke="#ED2A74" stroke-width="2" stroke-linecap="round" stroke-linejoin="round"/>
<path d="M65.7373 12.7899V12.1216" stroke="#ED2A74" stroke-width="2" stroke-linecap="round" stroke-linejoin="round"/>
<path d="M59.1943 67.9999L65.7365 59.1715V16.8699" stroke="#ED2A74" stroke-width="2" stroke-linecap="round" stroke-linejoin="round"/>
<path d="M47.9402 36.473C47.9402 39.0377 47.1797 41.5448 45.7548 43.6772C44.33 45.8096 42.3048 47.4717 39.9354 48.4531C37.5659 49.4346 34.9587 49.6914 32.4433 49.191C29.9279 48.6907 27.6174 47.4557 25.8039 45.6422C23.9904 43.8287 22.7554 41.5182 22.255 39.0028C21.7547 36.4874 22.0115 33.8801 22.9929 31.5107C23.9744 29.1413 25.6364 27.1161 27.7689 25.6912C29.9013 24.2664 32.4084 23.5059 34.973 23.5059C38.4121 23.5059 41.7104 24.872 44.1422 27.3039C46.574 29.7357 47.9402 33.0339 47.9402 36.473V36.473Z" stroke="#ED2A74" stroke-width="2" stroke-linecap="round" stroke-linejoin="round"/>
<path d="M25.4277 44.4575C25.4277 41.4091 29.7658 38.9353 35.1238 38.9353C40.4818 38.9353 44.8199 41.4091 44.8199 44.4575" stroke="#ED2A74" stroke-width="2" stroke-linecap="round" stroke-linejoin="round"/>
<path d="M38.6307 31.3378C38.633 32.111 38.4057 32.8675 37.9776 33.5113C37.5495 34.1551 36.9399 34.6574 36.226 34.9543C35.5121 35.2513 34.7261 35.3296 33.9677 35.1793C33.2092 35.029 32.5125 34.657 31.9658 34.1102C31.4191 33.5635 31.047 32.8668 30.8967 32.1083C30.7464 31.3499 30.8247 30.5639 31.1217 29.85C31.4187 29.1362 31.9209 28.5265 32.5647 28.0984C33.2086 27.6703 33.965 27.443 34.7382 27.4453C35.7705 27.4453 36.7606 27.8554 37.4906 28.5854C38.2206 29.3154 38.6307 30.3055 38.6307 31.3378V31.3378Z" stroke="#ED2A74" stroke-width="2" stroke-linecap="round" stroke-linejoin="round"/>
<path d="M22.0156 55.1384H46.4961" stroke="#ED2A74" stroke-width="2" stroke-linecap="round" stroke-linejoin="round"/>
<path d="M28.8164 61.0708H38.6297" stroke="#ED2A74" stroke-width="2" stroke-linecap="round" stroke-linejoin="round"/>
</svg>
