<svg width="68" height="70" viewBox="0 0 68 70" fill="none" xmlns="http://www.w3.org/2000/svg">
<path d="M28.8828 6.81958H18.9775V12.433L32.5927 20.7985C33.4021 21.309 34.3394 21.5799 35.2964 21.5799C36.2533 21.5799 37.1906 21.309 38 20.7985L50.2815 13.0149V6.81958H41.1643" stroke="#ED2A74" stroke-width="2" stroke-linecap="round" stroke-linejoin="round"/>
<path d="M12.7346 9.49878H7V68.6757H61V9.49878H50.2824" stroke="#ED2A74" stroke-width="2" stroke-linecap="round" stroke-linejoin="round"/>
<path d="M37.9765 11.8025C37.9765 12.2682 37.8383 12.7234 37.5793 13.1105C37.3203 13.4975 36.9523 13.799 36.5218 13.9767C36.0913 14.1543 35.6177 14.2002 35.1612 14.1084C34.7046 14.0167 34.2855 13.7915 33.9571 13.4613C33.6286 13.1312 33.4056 12.7109 33.3162 12.2539C33.2268 11.7968 33.2751 11.3236 33.455 10.894C33.6349 10.4644 33.9382 10.0979 34.3266 9.84095C34.715 9.58397 35.1709 9.44807 35.6366 9.45047C35.9449 9.45047 36.2502 9.51139 36.5349 9.62974C36.8196 9.74809 37.0781 9.92153 37.2955 10.1401C37.5129 10.3587 37.685 10.618 37.8019 10.9033C37.9188 11.1886 37.9781 11.4942 37.9765 11.8025V11.8025Z" stroke="#ED2A74" stroke-width="2" stroke-linecap="round" stroke-linejoin="round"/>
<path d="M17.4873 27.2483H51.1797" stroke="#ED2A74" stroke-width="2" stroke-linecap="round" stroke-linejoin="round"/>
<path d="M17.4873 34.656H51.1797" stroke="#ED2A74" stroke-width="2" stroke-linecap="round" stroke-linejoin="round"/>
<path d="M17.4873 41.4939H51.1797" stroke="#ED2A74" stroke-width="2" stroke-linecap="round" stroke-linejoin="round"/>
<path d="M17.4873 47.75H51.1797" stroke="#ED2A74" stroke-width="2" stroke-linecap="round" stroke-linejoin="round"/>
<path d="M17.4873 54.5876H51.1797" stroke="#ED2A74" stroke-width="2" stroke-linecap="round" stroke-linejoin="round"/>
<path d="M17.4873 61.4255H51.1797" stroke="#ED2A74" stroke-width="2" stroke-linecap="round" stroke-linejoin="round"/>
<path d="M29.2471 6.81949C29.2471 5.27606 29.8602 3.79585 30.9516 2.70449C32.0429 1.61312 33.5231 1 35.0666 1C36.61 1 38.0902 1.61312 39.1816 2.70449C40.2729 3.79585 40.886 5.27606 40.886 6.81949" stroke="#ED2A74" stroke-width="2" stroke-linecap="round" stroke-linejoin="round"/>
</svg>
