<svg width="68" height="70" viewBox="0 0 68 70" fill="none" xmlns="http://www.w3.org/2000/svg">
<path d="M9.47749 11.2712L9.48867 67.9998H2.95117L9.48867 51.9607" stroke="#ED2A74" stroke-width="2" stroke-linecap="round" stroke-linejoin="round"/>
<path d="M9.46582 6.72559L9.477 7.86203" stroke="#ED2A74" stroke-width="2" stroke-linecap="round" stroke-linejoin="round"/>
<path d="M9.48828 68H63.2857" stroke="#ED2A74" stroke-width="2" stroke-linecap="round" stroke-linejoin="round"/>
<path d="M24.6311 11.5876H13.2324V65.0006H24.6311V11.5876Z" stroke="#ED2A74" stroke-width="2" stroke-linecap="round" stroke-linejoin="round"/>
<path d="M39.7512 3H28.3525V65.0007H39.7512V3Z" stroke="#ED2A74" stroke-width="2" stroke-linecap="round" stroke-linejoin="round"/>
<path d="M54.3297 14.5662L43.1826 17.063L52.8024 64.2673L63.9495 61.7705L54.3297 14.5662Z" stroke="#ED2A74" stroke-width="2" stroke-linecap="round" stroke-linejoin="round"/>
<path d="M22.096 29.2554C22.096 29.863 21.924 30.4569 21.6018 30.962C21.2796 31.467 20.8217 31.8604 20.286 32.0924C19.7503 32.3244 19.1611 32.3845 18.5928 32.2651C18.0245 32.1457 17.5029 31.8522 17.0938 31.4217C16.6848 30.9913 16.4068 30.4432 16.2951 29.847C16.1834 29.2508 16.243 28.6333 16.4663 28.0726C16.6896 27.5119 17.0667 27.0333 17.5496 26.6974C18.0326 26.3616 18.5998 26.1835 19.1793 26.1858C19.5633 26.1858 19.9435 26.2653 20.2981 26.4197C20.6527 26.5741 20.9747 26.8004 21.2457 27.0856C21.5167 27.3708 21.7313 27.7092 21.8772 28.0816C22.0232 28.4539 22.0975 28.8528 22.096 29.2554V29.2554Z" stroke="#ED2A74" stroke-width="2" stroke-linecap="round" stroke-linejoin="round"/>
<path d="M13.2324 57.4673H24.6311" stroke="#ED2A74" stroke-width="2" stroke-linecap="round" stroke-linejoin="round"/>
<path d="M28.3525 11.5876H39.7512" stroke="#ED2A74" stroke-width="2" stroke-linecap="round" stroke-linejoin="round"/>
<path d="M28.3525 17.0474H39.7512" stroke="#ED2A74" stroke-width="2" stroke-linecap="round" stroke-linejoin="round"/>
<path d="M37.2132 57.1272C37.2154 57.7353 37.0453 58.3304 36.7244 58.837C36.4036 59.3436 35.9464 59.7388 35.4109 59.9726C34.8755 60.2064 34.2859 60.2681 33.7169 60.1501C33.1479 60.032 32.6251 59.7394 32.215 59.3094C31.8048 58.8794 31.5258 58.3314 31.4131 57.7349C31.3005 57.1384 31.3594 56.5202 31.5824 55.9588C31.8054 55.3975 32.1824 54.9182 32.6656 54.5818C33.1488 54.2454 33.7164 54.067 34.2965 54.0694C35.07 54.0694 35.8119 54.3915 36.3589 54.965C36.9059 55.5384 37.2132 56.3162 37.2132 57.1272Z" stroke="#ED2A74" stroke-width="2" stroke-linecap="round" stroke-linejoin="round"/>
<path d="M49.542 20.2104L55.0625 45.1654" stroke="#ED2A74" stroke-width="2" stroke-linecap="round" stroke-linejoin="round"/>
<path d="M59.4749 54.0698C59.4749 54.6774 59.3029 55.2714 58.9807 55.7764C58.6585 56.2815 58.2006 56.6749 57.6649 56.9069C57.1293 57.1388 56.54 57.1989 55.9717 57.0796C55.4035 56.9602 54.8818 56.6666 54.4728 56.2362C54.0637 55.8057 53.7858 55.2577 53.674 54.6615C53.5623 54.0653 53.6219 53.4477 53.8452 52.887C54.0686 52.3263 54.4456 51.8478 54.9285 51.5119C55.4115 51.176 55.9787 50.9979 56.5582 51.0003C56.9422 51.0003 57.3224 51.0797 57.677 51.2341C58.0316 51.3886 58.3536 51.6148 58.6246 51.9C58.8956 52.1852 59.1102 52.5237 59.2561 52.8961C59.4021 53.2684 59.4764 53.6673 59.4749 54.0698V54.0698Z" stroke="#ED2A74" stroke-width="2" stroke-linecap="round" stroke-linejoin="round"/>
<path d="M51.8103 9.57242L50.9609 6.15137" stroke="#ED2A74" stroke-width="2" stroke-linecap="round" stroke-linejoin="round"/>
<path d="M56.5576 11.5877L60.3795 7.55737" stroke="#ED2A74" stroke-width="2" stroke-linecap="round" stroke-linejoin="round"/>
<path d="M58.4688 17.0474H61.9442" stroke="#ED2A74" stroke-width="2" stroke-linecap="round" stroke-linejoin="round"/>
</svg>
