<svg width="68" height="70" viewBox="0 0 68 70" fill="none" xmlns="http://www.w3.org/2000/svg">
<path d="M59.8819 9.7872H65.3278V8.43439C65.3278 7.71976 65.1869 7.01215 64.913 6.35207C64.6392 5.69198 64.2379 5.09239 63.732 4.58761C63.2262 4.08283 62.6257 3.68278 61.9651 3.41036C61.3044 3.13793 60.5965 2.99849 59.8819 3.00001V3.00001C58.4446 3.00613 57.0683 3.58138 56.0541 4.59986C55.04 5.61834 54.4706 6.9971 54.4706 8.43439V59.4135C54.4706 61.1001 53.8006 62.7176 52.608 63.9102C51.4154 65.1028 49.7979 65.7728 48.1113 65.7728V65.7728C47.2757 65.7744 46.4481 65.6109 45.6758 65.2919C44.9036 64.9728 44.2019 64.5044 43.6111 63.9136C43.0203 63.3228 42.5519 62.6211 42.2329 61.8489C41.9138 61.0766 41.7504 60.249 41.7519 59.4135V59.2747L2 59.6794L2.70531 62.7203C2.94837 63.7372 3.52879 64.6417 4.35192 65.2864C5.17505 65.931 6.19232 66.2778 7.23781 66.27H37.6009" stroke="#ED2A74" stroke-width="2" stroke-linecap="round" stroke-linejoin="round"/>
<path d="M59.881 3.00024H18.9844C16.1294 3.00024 13.3914 4.13438 11.3726 6.15315C9.35386 8.17192 8.21973 10.91 8.21973 13.7649V59.6102" stroke="#ED2A74" stroke-width="2" stroke-linecap="round" stroke-linejoin="round"/>
<path d="M20.1748 16.1238H35.5645" stroke="#ED2A74" stroke-width="2" stroke-linecap="round" stroke-linejoin="round"/>
<path d="M20.1758 26.7263H43.5205" stroke="#ED2A74" stroke-width="2" stroke-linecap="round" stroke-linejoin="round"/>
<path d="M20.1758 37.3291H43.5205" stroke="#ED2A74" stroke-width="2" stroke-linecap="round" stroke-linejoin="round"/>
<path d="M20.1748 47.9321H43.5195" stroke="#ED2A74" stroke-width="2" stroke-linecap="round" stroke-linejoin="round"/>
<path d="M39.3115 16.1235H43.2428" stroke="#ED2A74" stroke-width="2" stroke-linecap="round" stroke-linejoin="round"/>
</svg>
