<svg width="110" height="19" viewBox="0 0 110 19" fill="none" xmlns="http://www.w3.org/2000/svg">
<path d="M0.85 18V0.249999H4.3V14.975H13.35V18H0.85ZM36.509 18.125C35.209 18.125 34.0257 17.875 32.959 17.375C31.909 16.875 31.0007 16.2 30.234 15.35C29.484 14.4833 28.9007 13.5167 28.484 12.45C28.0673 11.3667 27.859 10.2583 27.859 9.125C27.859 7.94167 28.0757 6.81667 28.509 5.75C28.9423 4.66667 29.5507 3.70833 30.334 2.875C31.1173 2.025 32.034 1.35833 33.084 0.874998C34.1507 0.374999 35.3173 0.124999 36.584 0.124999C37.8673 0.124999 39.034 0.383333 40.084 0.9C41.1507 1.41667 42.059 2.10833 42.809 2.975C43.5757 3.84167 44.159 4.81667 44.559 5.9C44.9757 6.96667 45.184 8.05833 45.184 9.175C45.184 10.3417 44.9673 11.4667 44.534 12.55C44.1007 13.6167 43.4923 14.575 42.709 15.425C41.9423 16.2583 41.0257 16.9167 39.959 17.4C38.909 17.8833 37.759 18.125 36.509 18.125ZM31.359 9.125C31.359 10.1583 31.559 11.125 31.959 12.025C32.3757 12.925 32.9673 13.6583 33.734 14.225C34.5173 14.7917 35.4507 15.075 36.534 15.075C37.6507 15.075 38.5923 14.7833 39.359 14.2C40.1257 13.6167 40.709 12.8667 41.109 11.95C41.509 11.0333 41.709 10.0917 41.709 9.125C41.709 8.09167 41.5007 7.125 41.084 6.225C40.6673 5.325 40.0673 4.6 39.284 4.05C38.5173 3.48333 37.6007 3.2 36.534 3.2C35.4173 3.2 34.4757 3.49167 33.709 4.075C32.9423 4.65833 32.359 5.40833 31.959 6.325C31.559 7.225 31.359 8.15833 31.359 9.125ZM69.0805 18.125C67.9138 18.125 66.8221 17.8917 65.8055 17.425C64.7888 16.9583 63.8888 16.3167 63.1055 15.5C62.3388 14.6667 61.7388 13.7 61.3055 12.6C60.8721 11.5 60.6555 10.3083 60.6555 9.025C60.6555 7.80833 60.8721 6.66667 61.3055 5.6C61.7388 4.51667 62.3471 3.56667 63.1305 2.75C63.9138 1.93333 64.8305 1.29167 65.8805 0.824999C66.9305 0.358332 68.0721 0.124999 69.3055 0.124999C70.9555 0.124999 72.3805 0.483332 73.5805 1.2C74.7805 1.9 75.6805 2.83333 76.2805 4L73.7055 5.9C73.2555 5.03333 72.6221 4.36667 71.8055 3.9C71.0055 3.41667 70.1305 3.175 69.1805 3.175C68.1805 3.175 67.2971 3.45 66.5305 4C65.7805 4.55 65.1888 5.275 64.7555 6.175C64.3388 7.075 64.1305 8.05833 64.1305 9.125C64.1305 10.2417 64.3555 11.25 64.8055 12.15C65.2555 13.05 65.8721 13.7667 66.6555 14.3C67.4555 14.8167 68.3638 15.075 69.3805 15.075C71.0971 15.075 72.6471 14.2667 74.0305 12.65V11.4H70.4555V8.875H76.8805V18H74.0305V16C72.5971 17.4167 70.9471 18.125 69.0805 18.125ZM101.271 18.125C99.9707 18.125 98.7874 17.875 97.7207 17.375C96.6707 16.875 95.7624 16.2 94.9957 15.35C94.2457 14.4833 93.6624 13.5167 93.2457 12.45C92.829 11.3667 92.6207 10.2583 92.6207 9.125C92.6207 7.94167 92.8374 6.81667 93.2707 5.75C93.704 4.66667 94.3124 3.70833 95.0957 2.875C95.879 2.025 96.7957 1.35833 97.8457 0.874998C98.9124 0.374999 100.079 0.124999 101.346 0.124999C102.629 0.124999 103.796 0.383333 104.846 0.9C105.912 1.41667 106.821 2.10833 107.571 2.975C108.337 3.84167 108.921 4.81667 109.321 5.9C109.737 6.96667 109.946 8.05833 109.946 9.175C109.946 10.3417 109.729 11.4667 109.296 12.55C108.862 13.6167 108.254 14.575 107.471 15.425C106.704 16.2583 105.787 16.9167 104.721 17.4C103.671 17.8833 102.521 18.125 101.271 18.125ZM96.1207 9.125C96.1207 10.1583 96.3207 11.125 96.7207 12.025C97.1374 12.925 97.729 13.6583 98.4957 14.225C99.279 14.7917 100.212 15.075 101.296 15.075C102.412 15.075 103.354 14.7833 104.121 14.2C104.887 13.6167 105.471 12.8667 105.871 11.95C106.271 11.0333 106.471 10.0917 106.471 9.125C106.471 8.09167 106.262 7.125 105.846 6.225C105.429 5.325 104.829 4.6 104.046 4.05C103.279 3.48333 102.362 3.2 101.296 3.2C100.179 3.2 99.2374 3.49167 98.4707 4.075C97.704 4.65833 97.1207 5.40833 96.7207 6.325C96.3207 7.225 96.1207 8.15833 96.1207 9.125Z" fill="#F9F9F9"/>
</svg>
